<svg width="18" height="18" viewBox="0 0 18 18" fill="none" xmlns="http://www.w3.org/2000/svg">
<path d="M1.5 6.28292C1.5 6.02018 1.5 5.88881 1.51096 5.77816C1.6167 4.71095 2.46095 3.8667 3.52816 3.76096C3.63881 3.75 3.77727 3.75 4.05419 3.75C4.16089 3.75 4.21424 3.75 4.25954 3.74726C4.83796 3.71223 5.34446 3.34716 5.56061 2.8095C5.57754 2.76739 5.59336 2.71993 5.625 2.625C5.65664 2.53007 5.67246 2.48261 5.68939 2.4405C5.90554 1.90284 6.41204 1.53777 6.99046 1.50274C7.03576 1.5 7.08579 1.5 7.18585 1.5H10.8141C10.9142 1.5 10.9642 1.5 11.0095 1.50274C11.588 1.53777 12.0945 1.90284 12.3106 2.4405C12.3275 2.48261 12.3434 2.53007 12.375 2.625C12.4066 2.71993 12.4225 2.76739 12.4394 2.8095C12.6555 3.34716 13.162 3.71223 13.7405 3.74726C13.7858 3.75 13.8391 3.75 13.9458 3.75C14.2227 3.75 14.3612 3.75 14.4718 3.76096C15.539 3.8667 16.3833 4.71095 16.489 5.77816C16.5 5.88881 16.5 6.02018 16.5 6.28292V12.15C16.5 13.4101 16.5 14.0402 16.2548 14.5215C16.039 14.9448 15.6948 15.289 15.2715 15.5048C14.7902 15.75 14.1601 15.75 12.9 15.75H5.1C3.83988 15.75 3.20982 15.75 2.72852 15.5048C2.30516 15.289 1.96095 14.9448 1.74524 14.5215C1.5 14.0402 1.5 13.4101 1.5 12.15V6.28292Z" stroke="#FFFCFC" stroke-width="2" stroke-linecap="round" stroke-linejoin="round"/>
<path d="M9 12.375C10.6569 12.375 12 11.0319 12 9.375C12 7.71815 10.6569 6.375 9 6.375C7.34315 6.375 6 7.71815 6 9.375C6 11.0319 7.34315 12.375 9 12.375Z" stroke="#FFFCFC" stroke-width="2" stroke-linecap="round" stroke-linejoin="round"/>
</svg>
