<svg width="24" height="24" viewBox="0 0 24 24" fill="none" xmlns="http://www.w3.org/2000/svg">
<path d="M16.7227 0C20.6768 0 23.333 2.77494 23.333 6.90332V16.4307C23.3329 20.5589 20.6769 23.333 16.7217 23.333H6.61035C2.65635 23.3329 7.3428e-05 20.5589 0 16.4307V6.90332C0 2.77501 2.65629 9.12894e-05 6.61035 0H16.7227ZM18.0088 12.3086C16.7585 11.5288 15.7928 12.6241 15.5322 12.9746C15.2813 13.3128 15.0644 13.6865 14.8369 14.0596C14.2809 14.9805 13.6435 16.0427 12.541 16.6602C10.9389 17.5468 9.72171 16.7294 8.84668 16.1348C8.51849 15.9134 8.19949 15.704 7.88184 15.5645C7.09831 15.2264 6.39294 15.6115 5.34668 16.9404C4.79775 17.635 4.25245 18.3236 3.70117 19.0098C3.37191 19.4203 3.45119 20.0536 3.89551 20.3281C4.60515 20.7651 5.47103 20.9999 6.44922 21H16.2812C16.836 21 17.3927 20.9242 17.9229 20.751C19.1168 20.361 20.0644 19.4675 20.5596 18.2881C20.9772 17.296 21.1807 16.0915 20.79 15.0898C20.6598 14.7576 20.4647 14.4479 20.1914 14.1758C19.4748 13.4644 18.8051 12.7997 18.0088 12.3086ZM7.58105 4.66699C5.97284 4.66723 4.66602 5.97615 4.66602 7.58398C4.66634 9.19155 5.97304 10.4998 7.58105 10.5C9.18804 10.4999 10.4958 9.19165 10.4961 7.58398C10.4961 5.97605 9.18823 4.66707 7.58105 4.66699Z" fill="#04332D"/>
</svg>
